<svg xmlns="http://www.w3.org/2000/svg" xmlns:xlink="http://www.w3.org/1999/xlink" width="122" height="156" viewBox="0 0 122 156"><defs><clipPath id="a"><rect width="82.352" height="63.126" fill="none"/></clipPath></defs><g transform="translate(-1132 -784)"><circle cx="61" cy="61" r="61" transform="translate(1132 784)" fill="#4397f8"/><g transform="translate(1152 817)"><g clip-path="url(#a)"><path d="M31.815,63.126a17.012,17.012,0,0,1,.373-5.885,36.4,36.4,0,0,1,3.248-9.619c.419-.819.368-.882-.571-.846-3.166.119-6.331.316-9.5.358A24.308,24.308,0,0,1,8.837,40.874,24.845,24.845,0,0,1,.212,24.613,67.235,67.235,0,0,1,.025,16.64Q0,14.178.026,11.714A1.964,1.964,0,0,1,2.173,9.532c3.6-.017,7.2-.157,10.786.022,13.527.677,22.648,9.96,24.613,21.264a27.945,27.945,0,0,1,.156,6.6c-.127,1.973-.211,3.948-.217,5.953.688-1.233,1.835-2.156,1.78-3.819-.112-3.394-.081-6.795-.024-10.191A28.256,28.256,0,0,1,47.172,9.6,29.856,29.856,0,0,1,65.54.2,23.507,23.507,0,0,1,68.247.014C72.154-.007,76.061,0,79.968.007c1.607,0,2.34.735,2.343,2.335.007,3.992.1,7.987-.02,11.975A28.226,28.226,0,0,1,74.442,33.6a29.807,29.807,0,0,1-18.174,9.412,26.4,26.4,0,0,1-3.13.207c-3.4.026-6.8.04-10.192-.011A2.046,2.046,0,0,0,41,44.2a63.229,63.229,0,0,0-9,18.463c-.045.157-.116.307-.176.461m4.63-17.934a1.489,1.489,0,0,0,.121-.828c-.128-2.911-.213-5.824-.393-8.731a24.08,24.08,0,0,0-3.556-11.381,30.174,30.174,0,0,0-8.13-8.208,16.464,16.464,0,0,0-8.263-3.024c-4.031-.423-8.086-.1-12.13-.19-.531-.011-.777.154-.763.724.087,3.477-.239,6.969.189,10.431a24.306,24.306,0,0,0,2.771,9.3c4.618,8,11.54,12.268,20.842,12.591a71.773,71.773,0,0,1,7.359.5c1.38.191,1.38.188,1.885-1.117l.067-.067m27.9-27.3.18.167c-.4.458-.8.928-1.216,1.373-4.571,4.869-9.309,9.581-13.8,14.529-1.54,1.7-3.015,3.453-4.514,5.186-.106.123-.259.306-.231.423.059.245.325.162.509.164.764.01,1.528.01,2.292,0,3.672-.026,7.338.111,10.985-.66a24.506,24.506,0,0,0,12.787-6.776,26.912,26.912,0,0,0,7.634-18.466c.117-3.194,0-6.4.037-9.594.01-.777-.273-.961-.99-.941-1.584.044-3.17.012-4.755.014a48.73,48.73,0,0,0-8.878.492c-9.455,1.751-15.993,7.1-19.609,15.954-2.092,5.121-2.032,10.556-1.825,15.975,0,.019.037.036.151.137A91.951,91.951,0,0,1,64.349,17.9" transform="translate(0 0)" fill="#fff"/><path d="M115.188,170.208a15.915,15.915,0,0,1-2.964-2.251c-4.731-4.046-9.3-8.27-13.613-12.76a37.276,37.276,0,0,1-3.14-3.673,1.741,1.741,0,0,1-.494-.873c.321-.191.553.053.777.17A46.42,46.42,0,0,1,112.49,165a25.2,25.2,0,0,1,2.765,5.144l-.067.067" transform="translate(-78.81 -124.949)" fill="#fff"/></g></g><text transform="translate(1193 934)" fill="#fff" font-size="16" font-family="Kanit-Medium, Kanit" font-weight="500"><tspan x="-29.728" y="0">NATURE</tspan></text></g></svg>