<svg version="1.2" xmlns="http://www.w3.org/2000/svg" viewBox="0 0 37 37" width="37" height="37">
	<title>social-svg</title>
	<style>
		.s0 { fill: #ffffff } 
	</style>
	<g id="Layer">
		<g id="Layer">
			<path id="Layer" fill-rule="evenodd" class="s0" d="m18.3 36.6c-5 0-5.6 0-7.6-0.1q-0.5 0-1.1 0-0.6-0.1-1.1-0.2-0.6-0.1-1.1-0.3-0.6-0.1-1.1-0.3-0.4-0.2-0.9-0.4-0.4-0.2-0.8-0.5-0.4-0.3-0.8-0.6-0.4-0.3-0.7-0.6-0.4-0.4-0.7-0.7-0.3-0.4-0.6-0.8-0.2-0.4-0.5-0.9-0.2-0.4-0.3-0.9-0.2-0.5-0.4-1-0.1-0.6-0.3-1.1-0.1-0.6-0.1-1.2-0.1-0.5-0.1-1.1c-0.1-2-0.1-2.6-0.1-7.5 0-5 0-5.6 0.1-7.6q0-0.5 0.1-1.1 0-0.6 0.2-1.1 0.1-0.6 0.2-1.1 0.2-0.6 0.4-1.1 0.1-0.5 0.4-0.9 0.2-0.4 0.4-0.8 0.3-0.4 0.6-0.8 0.3-0.4 0.7-0.7 0.3-0.4 0.7-0.7 0.4-0.3 0.8-0.6 0.4-0.2 0.8-0.5 0.5-0.2 0.9-0.4 0.5-0.2 1.1-0.3 0.5-0.2 1.1-0.3 0.6-0.1 1.1-0.1 0.6-0.1 1.1-0.1c2-0.1 2.7-0.1 7.6-0.1 4.9 0 5.6 0 7.5 0.1q0.6 0 1.2 0.1 0.5 0 1.1 0.1 0.5 0.1 1.1 0.3 0.5 0.1 1.1 0.3 0.4 0.2 0.9 0.4 0.4 0.3 0.8 0.5 0.4 0.3 0.8 0.6 0.4 0.3 0.7 0.7 0.3 0.3 0.7 0.7 0.3 0.4 0.5 0.8 0.3 0.4 0.5 0.8 0.2 0.4 0.4 0.9 0.2 0.5 0.4 1.1 0.1 0.5 0.2 1.1 0.1 0.5 0.2 1.1 0.1 0.6 0.1 1.1c0 2 0.1 2.6 0.1 7.6 0 4.9-0.1 5.5-0.1 7.5q-0.1 0.6-0.1 1.1-0.1 0.6-0.2 1.2-0.1 0.5-0.2 1.1-0.2 0.5-0.4 1-0.4 0.9-0.9 1.8-0.5 0.8-1.2 1.5-0.7 0.7-1.5 1.2-0.8 0.5-1.8 0.9-0.5 0.2-1 0.3-0.6 0.2-1.1 0.3-0.6 0.1-1.2 0.2-0.5 0-1.1 0c-1.9 0.1-2.6 0.1-7.5 0.1zm-6.3-21.5v4.4h3.6v11h4.4v-11h3.5l0.5-4.4h-4v-3c0-1.3 0.4-2.2 2.1-2.2h2.3v-3.9q-0.4-0.1-0.8-0.1-0.5 0-0.9-0.1-0.4 0-0.8 0-0.4 0-0.8 0-0.6 0-1.1 0.1-0.5 0.1-1.1 0.2-0.5 0.2-0.9 0.5-0.5 0.3-0.9 0.7-0.4 0.4-0.7 0.9-0.3 0.6-0.5 1.1-0.2 0.6-0.3 1.1 0 0.6 0 1.2v3.5z"/>
		</g>
		<g id="Layer">
			<path id="Layer" fill-rule="evenodd" class="s0" d="m148.6 36.6q-1.5 0-3-0.1-1.5 0-3-0.2-1.5-0.1-3-0.3-1.5-0.2-3-0.5c-2.9-0.5-5.1-3.4-5.6-7.2q-0.3-2.5-0.5-5-0.2-2.5-0.2-5 0-2.5 0.2-5.1 0.2-2.5 0.5-5c0.5-3.7 2.7-6.6 5.6-7.2q1.5-0.2 3-0.4 1.5-0.2 3-0.4 1.5-0.1 3-0.2 1.5 0 3 0 1.5 0 3.1 0 1.5 0.1 3 0.2 1.5 0.2 3 0.4 1.5 0.2 3 0.4c2.8 0.6 5 3.5 5.5 7.2q0.4 2.5 0.5 5 0.2 2.6 0.2 5.1 0 2.5-0.2 5-0.1 2.5-0.5 5c-0.5 3.8-2.7 6.7-5.5 7.2q-1.5 0.3-3 0.5-1.5 0.2-3 0.3-1.5 0.2-3 0.2-1.5 0.1-3.1 0.1zm-4.8-26.7q-0.2 0-0.5 0.1-0.3 0.1-0.5 0.3-0.2 0.2-0.3 0.5-0.1 0.3-0.1 0.6v13.8q0 0.3 0.1 0.6 0.1 0.2 0.3 0.4 0.2 0.3 0.5 0.4 0.3 0.1 0.5 0.1 0.1 0 0.2 0 0.1 0 0.2-0.1 0.1 0 0.2 0 0.1-0.1 0.2-0.1l11.6-6.9q0.3-0.2 0.5-0.6 0.2-0.3 0.2-0.7 0-0.4-0.2-0.7-0.2-0.4-0.5-0.6l-11.6-6.9q-0.1-0.1-0.2-0.1-0.1 0-0.2-0.1-0.1 0-0.2 0-0.1 0-0.2 0zm1.5 12.7v-8.6l7.2 4.3c0 0-7.2 4.3-7.2 4.3z"/>
		</g>
		<path id="Layer" fill-rule="evenodd" class="s0" d="m102 18.3q-0.3 1.3-0.8 2.5-0.5 1.2-1.3 2.3-0.7 1.1-1.7 2.1c-4 4.6-13 10.2-15 11.1-2.1 0.8-1.8-0.6-1.7-1l0.3-1.7q0-0.2 0-0.4 0-0.2 0-0.4 0-0.3 0-0.5 0-0.2-0.1-0.4c-0.2-0.5-1.1-0.8-1.7-0.9-9.2-1.3-16-7.7-16-15.4 0-8.5 8.6-15.5 19.2-15.5 10.5 0 19.1 7 19.1 15.5q0 1.4-0.3 2.7zm-13.2-6.2q-0.1-0.4-0.3-0.7-0.3-0.3-0.8-0.3-0.4 0-0.7 0.3-0.3 0.3-0.3 0.7v4.7l-3.9-5.3q-0.1-0.1-0.1-0.2-0.1 0-0.2-0.1-0.1 0-0.3-0.1-0.1 0-0.2 0 0 0-0.1 0 0 0 0 0-0.1 0-0.1 0-0.1 0-0.1 0.1-0.1 0-0.3 0.1-0.1 0.1-0.2 0.2-0.1 0.2-0.1 0.3-0.1 0.2-0.1 0.3v7.6q0 0.4 0.3 0.7 0.3 0.3 0.7 0.3 0.4 0 0.7-0.3 0.3-0.3 0.3-0.7v-4.7l3.9 5.3q0.1 0.1 0.2 0.2 0.1 0.1 0.2 0.1 0.1 0.1 0.2 0.1 0.1 0 0.2 0 0.1 0 0.1 0 0.1 0 0.1 0 0 0 0.1 0 0 0 0.1 0 0.1-0.1 0.2-0.2 0.2-0.1 0.3-0.2 0.1-0.1 0.1-0.3 0.1-0.1 0.1-0.3zm-9.2 0q0-0.4-0.3-0.7-0.3-0.3-0.7-0.3-0.4 0-0.7 0.3-0.3 0.3-0.3 0.7v7.6q0 0.5 0.3 0.7 0.3 0.3 0.7 0.3 0.4 0 0.7-0.3 0.3-0.2 0.3-0.7zm-3.2 8.4q0.3-0.3 0.3-0.7 0-0.5-0.3-0.8-0.3-0.2-0.7-0.3h-2.8v-6.6q0-0.4-0.3-0.7-0.3-0.3-0.7-0.3-0.5 0-0.8 0.3-0.2 0.3-0.3 0.7v7.7q0 0.2 0.1 0.3 0.1 0.2 0.2 0.4 0.2 0.1 0.4 0.2 0.2 0.1 0.4 0.1h3.8q0.4-0.1 0.7-0.3zm15.7-5.6v-1.8h2.8q0.4 0 0.7-0.2 0.3-0.3 0.3-0.8 0-0.4-0.3-0.7-0.3-0.3-0.7-0.3h-3.8q-0.2 0-0.4 0.1-0.2 0.1-0.3 0.2-0.1 0.2-0.2 0.4-0.1 0.1-0.1 0.3v7.7q0 0.2 0.1 0.3 0.1 0.2 0.2 0.4 0.1 0.1 0.3 0.2 0.2 0.1 0.4 0.1h3.8q0.4 0 0.7-0.3 0.3-0.3 0.3-0.7 0-0.5-0.3-0.7-0.3-0.3-0.7-0.3h-2.8v-1.8h2.8q0.4-0.1 0.7-0.3 0.3-0.3 0.3-0.8 0-0.4-0.3-0.7-0.3-0.3-0.7-0.3c0 0-2.8 0-2.8 0z"/>
	</g>
</svg>