<svg xmlns="http://www.w3.org/2000/svg" xmlns:xlink="http://www.w3.org/1999/xlink" width="122" height="174" viewBox="0 0 122 174"><defs><clipPath id="a"><rect width="69.228" height="77.719" fill="none"/></clipPath></defs><g transform="translate(-905 -784)"><circle cx="61" cy="61" r="61" transform="translate(905 784)" fill="#4397f8"/><g transform="translate(931 806)"><g clip-path="url(#a)"><path d="M69.2,25.133c-.044,3.748.039,7.5-.09,11.245a43.869,43.869,0,0,1-10.37,27.453A43.223,43.223,0,0,1,38.284,77.149a13.159,13.159,0,0,1-9.752-.893C14.327,69.814,5.3,59.015,1.339,43.958A47.556,47.556,0,0,1,.015,32.046c-.028-5.278-.009-10.556,0-15.834A11.562,11.562,0,0,1,.1,14.746a2.8,2.8,0,0,1,2.71-2.562c10.868-.5,20.313-4.771,29.065-10.9.284-.2.561-.405.849-.6a2.908,2.908,0,0,1,3.761.007A82.494,82.494,0,0,0,44,5.482a52.043,52.043,0,0,0,19.219,6.457c.972.115,1.952.169,2.93.221a2.847,2.847,0,0,1,2.972,2.768c.211,2.676.044,5.361.083,8.042.01.721,0,1.442,0,2.163m-5.754,2.909c0-3.575-.014-6.516.011-9.457.006-.667-.252-.9-.9-.969a50.25,50.25,0,0,1-11.18-2.555A66.591,66.591,0,0,1,35.344,6.849a1.067,1.067,0,0,0-1.438-.009,70.994,70.994,0,0,1-10.038,5.765,54.241,54.241,0,0,1-17.01,4.986c-.848.1-1.12.364-1.113,1.214.035,4.613.015,9.227.017,13.84a38.081,38.081,0,0,0,.677,7.649Q11.008,62.6,32,71.462a6.643,6.643,0,0,0,4.817.156A37.948,37.948,0,0,0,54.27,60.246a38.191,38.191,0,0,0,9.048-22.638c.231-3.4.04-6.8.13-9.567" transform="translate(0 0)" fill="#fff"/><path d="M137.9,165.843a2.582,2.582,0,0,1-.824,2.02q-8.592,8.6-17.2,17.186a2.734,2.734,0,0,1-3.974.042q-5-4.909-9.913-9.909a2.853,2.853,0,0,1,.074-3.987,2.8,2.8,0,0,1,3.976,0q3.585,3.512,7.094,7.1c.55.563.878.581,1.445.009q7.126-7.19,14.307-14.327a2.823,2.823,0,0,1,4.276-.106,2.576,2.576,0,0,1,.737,1.967" transform="translate(-86.974 -134.693)" fill="#fff"/></g></g><text transform="translate(966 934)" fill="#fff" font-size="16" font-family="Kanit-Medium, Kanit" font-weight="500"><tspan x="-33.24" y="0">PROTECT</tspan><tspan x="-24.448" y="18">CROPS</tspan></text></g></svg>