<svg xmlns="http://www.w3.org/2000/svg" xmlns:xlink="http://www.w3.org/1999/xlink" width="122" height="174" viewBox="0 0 122 174"><defs><clipPath id="a"><rect width="64.39" height="92.77" fill="rgba(0,0,0,0)"/></clipPath></defs><g transform="translate(-715 -784)"><circle cx="61" cy="61" r="61" transform="translate(715 784)" fill="#4397f8"/><g transform="translate(549 995)"><g transform="translate(195 -196)" clip-path="url(#a)"><path d="M10.978,56.924a2.676,2.676,0,0,0,.31,1.549A16.61,16.61,0,0,0,23.118,69.71c1.329.382,1.342.338,1.444-1A9.761,9.761,0,0,1,43.552,66.27c.424,1.217.436,1.221,1.51.553a20.9,20.9,0,0,0,8.153-26.5c-.394-.89-.68-1.279-1.771-.721a8.7,8.7,0,0,1-8.194-.08,1.1,1.1,0,0,0-1.561.254c-1.513,1.587-3.08,3.124-4.641,4.665-1.153,1.138-2,1.137-3.16.037-.052-.05-.1-.105-.154-.151-.739-.607-1.234-1.841-2.139-1.806-.819.031-1.378,1.154-2.043,1.8-1.237,1.2-2.433,2.449-3.67,3.653-1.088,1.059-2.037,1.077-3.1.029q-3.382-3.332-6.715-6.712C15,40.215,15,39.306,16.073,38.2q2.476-2.558,5.034-5.036c.565-.546.656-.927.016-1.467a19.365,19.365,0,0,1-1.681-1.673,1.8,1.8,0,0,1,.019-2.844c.841-.887,1.722-1.736,2.586-2.6Q32.535,14.083,43.023,3.591c1.616-1.617,2.324-1.616,3.957,0,1.569,1.548,1.569,1.548,3.139-.022.941-.941,1.872-1.892,2.827-2.818A1.819,1.819,0,0,1,55.863.716Q59.775,4.584,63.645,8.5a1.779,1.779,0,0,1-.012,2.9c-1.252,1.29-2.52,2.567-3.818,3.81-.482.462-.493.79,0,1.224a12.562,12.562,0,0,1,1.205,1.234,1.852,1.852,0,0,1-.07,2.859c-1.636,1.67-3.284,3.328-4.963,4.954a1.062,1.062,0,0,0-.245,1.476,8.973,8.973,0,0,1-.2,8.87,1.235,1.235,0,0,0,.037,1.381A24.334,24.334,0,0,1,44.95,70.934a3.306,3.306,0,0,0-1.524,4.052c.953,2.173,1.945,4.329,2.884,6.507a1.238,1.238,0,0,0,1.333.837c1.006-.029,2.015-.031,3.02.006,1.628.06,2.284.731,2.3,2.343.017,1.978.021,3.956,0,5.934-.018,1.52-.662,2.15-2.195,2.151q-16.507.009-33.014,0c-1.389,0-2.046-.523-2.1-1.9-.081-2.19-.075-4.387.01-6.576.05-1.3.7-1.856,2.006-1.933a29.94,29.94,0,0,1,3.127-.015,1.4,1.4,0,0,0,1.555-.988c.9-2.155,1.886-4.275,2.84-6.408.481-1.077.436-1.177-.736-1.356a20.109,20.109,0,0,1-14.381-9.313,19.541,19.541,0,0,1-3.148-10.5,2.6,2.6,0,0,0-.842-1.988C4.33,50.081,2.612,48.34.891,46.6-.291,45.408-.3,44.555.869,43.371,2,42.217,3.142,41.066,4.3,39.94a1.816,1.816,0,0,1,2.918-.005q8.485,8.452,16.937,16.936a1.749,1.749,0,0,1,.014,2.825c-1.148,1.192-2.325,2.355-3.507,3.513-1.152,1.129-2.015,1.136-3.154.011-1.868-1.844-3.712-3.714-5.577-5.561-.27-.267-.474-.636-.957-.735m27.147-25.71a16.948,16.948,0,0,1,.18-1.817A9.3,9.3,0,0,1,52.068,23.13a1.012,1.012,0,0,0,1.474-.2c1.012-1.071,2.043-2.128,3.129-3.122.64-.585.58-.945-.02-1.536Q51.235,12.936,45.9,7.516c-.674-.687-1.053-.756-1.768-.029-4.03,4.1-8.115,8.151-12.181,12.218-2.719,2.72-5.426,5.452-8.167,8.15-.561.552-.6.915-.019,1.489Q29.291,34.8,34.751,40.321c.533.538.907.525,1.416-.013.987-1.045,2.008-2.059,3.046-3.053a.975.975,0,0,0,.168-1.411,8.534,8.534,0,0,1-1.255-4.629m-3.8,44.391A6.209,6.209,0,1,0,34.3,63.188a6.209,6.209,0,0,0,.024,12.417m7.4-44.364a5.657,5.657,0,0,0,5.726,5.728,5.767,5.767,0,1,0,.059-11.533,5.682,5.682,0,0,0-5.785,5.8M34.244,89.219q6.953,0,13.905,0c.382,0,.927.155,1.093-.244a4.223,4.223,0,0,0,.075-2.538c-.157-.7-.9-.428-1.4-.429q-13.42-.023-26.84-.011c-1.836,0-1.777,0-1.843,1.844-.04,1.1.353,1.416,1.428,1.4,4.527-.05,9.054-.021,13.581-.021m.119-6.9c2.443,0,4.887-.012,7.331.007.759.006,1.1-.141.687-.977-.541-1.094-1.025-2.218-1.486-3.348-.288-.706-.59-.8-1.279-.391a9.567,9.567,0,0,1-10.767-.1c-.645-.412-.841-.21-1.08.355-.5,1.19-1.009,2.383-1.575,3.544-.37.76-.123.926.624.919,2.515-.024,5.031-.009,7.546-.01M20.392,58.255a6.273,6.273,0,0,0-.457-.574Q13.153,50.89,6.376,44.1c-.555-.559-.88-.355-1.311.1s-.8.775-.168,1.4q6.814,6.757,13.584,13.559c.219.218.451.561.816.312a2.888,2.888,0,0,0,1.1-1.21M54.326,4.415a2.465,2.465,0,0,0-.308.231c-.868.861-1.726,1.732-2.6,2.587-.377.369-.163.629.112.9,1.553,1.549,3.114,3.091,4.65,4.656.445.453.773.369,1.163-.051.709-.764,1.426-1.523,2.175-2.247.462-.446.343-.766-.057-1.164-1.529-1.522-3.036-3.065-4.553-4.6a.708.708,0,0,0-.582-.315m-29.9,30.674c-.475.086-.688.447-.937.731-.313.357.042.583.256.8,1.209,1.22,2.444,2.414,3.631,3.655.464.485.763.438,1.22-.015s.347-.742-.057-1.135c-1.231-1.2-2.434-2.423-3.651-3.635-.149-.148-.318-.276-.462-.4m.856,8.342a.77.77,0,0,0-.327-.553c-1.264-1.267-2.543-2.518-3.788-3.8-.429-.442-.691-.272-1.054.075-.413.394-.52.681-.05,1.132,1.265,1.214,2.485,2.474,3.732,3.707.19.188.38.518.712.281a2.145,2.145,0,0,0,.776-.84" transform="translate(0 0)" fill="#fff"/></g></g><text transform="translate(776 934)" fill="#fff" font-size="16" font-family="Kanit-Medium, Kanit" font-weight="500"><tspan x="-57.008" y="0">RESEARCH AND</tspan><tspan x="-54.392" y="18">DEVELOPMENT</tspan></text></g></svg>