<svg version="1.2" xmlns="http://www.w3.org/2000/svg" viewBox="0 0 27 39" width="27" height="39">
	<title>detail map-svg</title>
	<style>
		tspan { white-space:pre } 
		.t0 { font-size: 41px;fill: #002a4e;font-weight: 500;font-family: "Kanit-Medium", "Kanit" } 
		.t1 { font-size: 34px;fill: #002a4e;font-weight: 500;font-family: "Kanit-Medium", "Kanit" } 
		.t2 { font-size: 23px;fill: #002a4e;font-weight: 500;font-family: "Kanit-Medium", "Kanit" } 
		.s3 { fill: #002a4e } 
		.s4 { fill: none;stroke: #0f4c81 } 
	</style>
	<g id="Layer">
		<text id="หจก. ทีแอนด์เอ็นเคมีเกษตร" style="transform: matrix(1,0,0,1,0,-53)" >
			<tspan x="0" y="0" class="t0">หจก. ทีแอนด์เอ็นเคมีเกษตร
</tspan>
		</text>
		<text id="สอบถามข้อมูลเกี่ยวกับผลิตภัณฑ์" style="transform: matrix(1,0,0,1,0,164)" >
			<tspan x="0" y="0" class="t1">สอบถามข้อมูลเกี่ยวกับผลิตภัณฑ์
</tspan>
		</text>
		<text id="141 หมู่ 10 ต.ห้วยม่วง อ.กำแพงแสน จ.นครปฐม 73180" style="transform: matrix(1,0,0,1,48,27)" >
			<tspan x="0" y="0" class="t2">141 หมู่ 10 ต.ห้วยม่วง อ.กำแพงแสน จ.นครปฐม 73180
</tspan>
		</text>
		<g id="Layer">
			<text id="เบอร์โทรศัพท์ 02-270-0762, 02-6160337" style="transform: matrix(1,0,0,1,48,220)" >
				<tspan x="0" y="0" class="t2">เบอร์โทรศัพท์ 02-270-0762, 02-6160337
</tspan>
			</text>
			<text id="เบอร์โทรฝ่ายขาย 081-857-8343, 081-425-2395, 085-935-0925" style="transform: matrix(1,0,0,1,473.5,273)" >
				<tspan x="0" y="0" class="t2">เบอร์โทรฝ่ายขาย 081-857-8343, 081-425-2395, 085-935-0925
</tspan>
			</text>
			<text id="เบอร์โทรฝ่ายผลิตภัณฑ์/ทะเบียน 085-935-0925" style="transform: matrix(1,0,0,1,1117.5,326)" >
				<tspan x="0" y="0" class="t2">เบอร์โทรฝ่ายผลิตภัณฑ์/ทะเบียน 085-935-0925
</tspan>
			</text>
		</g>
		<path id="Layer" fill-rule="evenodd" class="s3" d="m12.1 36.3c-10.2-14.8-12.1-16.4-12.1-21.8 0-3.6 1.4-7 4-9.5 2.5-2.6 5.9-4 9.5-4 3.6 0 7 1.4 9.5 4 2.6 2.5 4 5.9 4 9.5 0 5.4-1.9 7-12.1 21.8q-0.3 0.3-0.6 0.5-0.4 0.2-0.8 0.2-0.4 0-0.8-0.2-0.4-0.2-0.6-0.5zm1.4-16.2c2.3 0 4.3-1.3 5.2-3.4 0.9-2.1 0.4-4.6-1.2-6.2-1.6-1.6-4.1-2.1-6.2-1.2-2.1 0.9-3.4 2.9-3.4 5.2q0 1.1 0.4 2.2 0.4 1 1.2 1.8 0.8 0.8 1.8 1.2 1.1 0.4 2.2 0.4z"/>
		<path id="Layer" class="s3" d="m26.2 223.1q-0.5-0.4-1.1-0.9-0.5-0.4-1.1-0.8-0.6-0.4-1.3-0.7-0.6-0.4-1.2-0.7c-1.4-0.7-2-0.7-3 0-0.8 0.6-1.3 1.2-2.3 1-1-0.2-2.9-1.7-4.7-3.5-1.8-1.8-3.3-3.7-3.5-4.7-0.2-0.9 0.4-1.5 1-2.3 0.7-1 0.7-1.6 0-3q-0.3-0.6-0.6-1.2-0.4-0.7-0.8-1.3-0.4-0.5-0.8-1.1-0.5-0.6-0.9-1.1c-1.1-1.1-1.3-0.8-1.9-0.6q-0.2 0.1-0.4 0.2-0.2 0.1-0.4 0.2-0.2 0.1-0.5 0.2-0.2 0.1-0.4 0.3-0.3 0.2-0.6 0.4-0.3 0.2-0.5 0.5-0.3 0.3-0.5 0.6-0.2 0.3-0.4 0.6c-0.4 0.9-0.8 2.5 1.5 6.7q0.7 1.2 1.4 2.3 0.8 1.2 1.6 2.3 0.8 1.1 1.7 2.1 0.9 1.1 1.9 2 1 1 2 1.9 1 0.9 2.1 1.7 1.1 0.9 2.3 1.6 1.1 0.7 2.3 1.4c4.2 2.3 5.8 1.9 6.7 1.5q0.3-0.2 0.7-0.4 0.3-0.2 0.5-0.5 0.3-0.2 0.5-0.5 0.3-0.3 0.4-0.6 0.2-0.2 0.3-0.4 0.1-0.2 0.2-0.5 0.1-0.2 0.2-0.4 0.1-0.2 0.2-0.4c0.2-0.6 0.5-0.8-0.6-1.9z"/>
		<path id="Layer" class="s3" d="m26.2 273.1q-0.5-0.4-1.1-0.9-0.5-0.4-1.1-0.8-0.6-0.4-1.3-0.7-0.6-0.4-1.2-0.7c-1.4-0.7-2-0.7-3 0-0.8 0.6-1.3 1.2-2.3 1-1-0.2-2.9-1.7-4.7-3.5-1.8-1.8-3.3-3.7-3.5-4.7-0.2-0.9 0.4-1.5 1-2.3 0.7-1 0.7-1.6 0-3q-0.3-0.6-0.6-1.2-0.4-0.7-0.8-1.3-0.4-0.5-0.8-1.1-0.5-0.6-0.9-1.1c-1.1-1.1-1.3-0.8-1.9-0.6q-0.2 0.1-0.4 0.2-0.2 0.1-0.4 0.2-0.2 0.1-0.5 0.2-0.2 0.1-0.4 0.3-0.3 0.2-0.6 0.4-0.3 0.2-0.5 0.5-0.3 0.3-0.5 0.6-0.2 0.3-0.4 0.6c-0.4 0.9-0.8 2.5 1.5 6.7q0.7 1.2 1.4 2.3 0.8 1.2 1.6 2.3 0.8 1.1 1.7 2.1 0.9 1.1 1.9 2 1 1 2 1.9 1 0.9 2.1 1.7 1.1 0.9 2.3 1.6 1.1 0.7 2.3 1.4c4.2 2.3 5.8 1.9 6.7 1.5q0.3-0.2 0.7-0.4 0.3-0.2 0.5-0.5 0.3-0.2 0.5-0.5 0.3-0.3 0.4-0.6 0.2-0.2 0.3-0.4 0.1-0.2 0.2-0.5 0.1-0.2 0.2-0.4 0.1-0.2 0.2-0.4c0.2-0.6 0.5-0.8-0.6-1.9z"/>
		<path id="Layer" class="s3" d="m26.2 322.1q-0.5-0.4-1.1-0.9-0.5-0.4-1.1-0.8-0.6-0.4-1.3-0.7-0.6-0.4-1.2-0.7c-1.4-0.7-2-0.7-3 0-0.8 0.6-1.3 1.2-2.3 1-1-0.2-2.9-1.7-4.7-3.5-1.8-1.8-3.3-3.7-3.5-4.7-0.2-0.9 0.4-1.5 1-2.3 0.7-1 0.7-1.6 0-3q-0.3-0.6-0.6-1.2-0.4-0.7-0.8-1.3-0.4-0.5-0.8-1.1-0.5-0.6-0.9-1.1c-1.1-1.1-1.3-0.8-1.9-0.6q-0.2 0.1-0.4 0.2-0.2 0.1-0.4 0.2-0.2 0.1-0.5 0.2-0.2 0.1-0.4 0.3-0.3 0.2-0.6 0.4-0.3 0.2-0.5 0.5-0.3 0.3-0.5 0.6-0.2 0.3-0.4 0.6c-0.4 0.9-0.8 2.5 1.5 6.7q0.7 1.2 1.4 2.3 0.8 1.2 1.6 2.3 0.8 1.1 1.7 2.1 0.9 1.1 1.9 2 1 1 2 1.9 1 0.9 2.1 1.7 1.1 0.9 2.3 1.6 1.1 0.7 2.3 1.4c4.2 2.3 5.8 1.9 6.7 1.5q0.3-0.2 0.7-0.4 0.3-0.2 0.5-0.5 0.3-0.2 0.5-0.5 0.3-0.3 0.4-0.6 0.2-0.2 0.3-0.4 0.1-0.2 0.2-0.5 0.1-0.2 0.2-0.4 0.1-0.2 0.2-0.4c0.2-0.6 0.5-0.8-0.6-1.9z"/>
		<path id="Layer" class="s4" d="m0.5 91.5h693"/>
	</g>
</svg>