<svg xmlns="http://www.w3.org/2000/svg" width="56" height="56" viewBox="0 0 56 56"><path d="M34.012,23.775v8.887a.4.4,0,0,1-.4.4H32.187a.413.413,0,0,1-.325-.163l-4.075-5.5v5.275a.4.4,0,0,1-.4.4H25.962a.4.4,0,0,1-.4-.4V23.787a.4.4,0,0,1,.4-.4h1.412a.377.377,0,0,1,.325.175l4.075,5.5V23.787a.4.4,0,0,1,.4-.4H33.6a.4.4,0,0,1,.412.387Zm-10.25-.4H22.337a.4.4,0,0,0-.4.4v8.887a.4.4,0,0,0,.4.4h1.425a.4.4,0,0,0,.4-.4V23.775a.4.4,0,0,0-.4-.4Zm-3.437,7.45H16.437v-7.05a.4.4,0,0,0-.4-.4H14.612a.4.4,0,0,0-.4.4v8.887a.368.368,0,0,0,.113.275.422.422,0,0,0,.275.113h5.712a.4.4,0,0,0,.4-.4V31.225a.4.4,0,0,0-.388-.4Zm21.187-7.45H35.8a.4.4,0,0,0-.4.4v8.887a.4.4,0,0,0,.4.4h5.712a.4.4,0,0,0,.4-.4V31.237a.4.4,0,0,0-.4-.4H37.625v-1.5h3.887a.4.4,0,0,0,.4-.4V27.5a.4.4,0,0,0-.4-.4H37.625V25.6h3.887a.4.4,0,0,0,.4-.4V23.775A.42.42,0,0,0,41.512,23.375ZM56,12.463V48.125A10.181,10.181,0,0,1,45.787,58.25H10.125A10.19,10.19,0,0,1,0,48.037V12.375A10.19,10.19,0,0,1,10.213,2.25H45.875A10.181,10.181,0,0,1,56,12.463ZM48.3,27.787c0-9.125-9.15-16.55-20.387-16.55S7.525,18.662,7.525,27.787c0,8.175,7.25,15.025,17.05,16.325,2.388.512,2.112,1.387,1.575,4.6-.088.512-.413,2.012,1.762,1.1S39.65,42.9,43.937,37.975C46.887,34.725,48.3,31.437,48.3,27.787Z" transform="translate(0 -2.25)" fill="#06c96f"/></svg>